# xmcd
#
# Track frame offsets:
#	150
#	20814
#	36350
#	54179
#	75818
#	99123
#	116957
#	132273
#	149635
#	170486
#	187389
#	209776
#
# Disc length: 3027 seconds
#
# Revision: 0
# Processed by: cddbd v1.5.2PL0 Copyright (c) Steve Scherf et al.
# Submitted via: audiograbber 1.83.01
#
DISCID=b10bd10c
DTITLE=Thopper - Blessed Are The Dreamers
DYEAR=2017
DGENRE=Country
TTITLE0=Welkome To My Honky Tonk Nights
TTITLE1=Some Broken Heart
TTITLE2=Back to Yesterday
TTITLE3=Bleset Is The Dreamer
TTITLE4=You Never Been This Far Before
TTITLE5=The Year That Clayton Delaney Died
TTITLE6=Droptop Cadillac
TTITLE7=Countyry Bumpkin
TTITLE8=She´s A ChipOff The Old Block
TTITLE9=Angels Have Choices
TTITLE10=A Billion Stars Shining Down On Your Christmas Tree
TTITLE11=Dreamer
EXTD=
EXTT0=
EXTT1=
EXTT2=
EXTT3=
EXTT4=
EXTT5=
EXTT6=
EXTT7=
EXTT8=
EXTT9=
EXTT10=
EXTT11=
PLAYORDER=
